<svg width="20" height="13" viewBox="0 0 20 13" fill="none" xmlns="http://www.w3.org/2000/svg">
<path d="M10 1.99992C13.1583 1.99992 15.975 3.77492 17.35 6.58325C15.975 9.39159 13.1583 11.1666 10 11.1666C6.84166 11.1666 4.025 9.39159 2.65 6.58325C4.025 3.77492 6.84166 1.99992 10 1.99992ZM10 0.333252C5.83333 0.333252 2.275 2.92492 0.833332 6.58325C2.275 10.2416 5.83333 12.8333 10 12.8333C14.1667 12.8333 17.725 10.2416 19.1667 6.58325C17.725 2.92492 14.1667 0.333252 10 0.333252ZM10 4.49992C11.15 4.49992 12.0833 5.43325 12.0833 6.58325C12.0833 7.73325 11.15 8.66658 10 8.66658C8.85 8.66658 7.91666 7.73325 7.91666 6.58325C7.91666 5.43325 8.85 4.49992 10 4.49992ZM10 2.83325C7.93333 2.83325 6.25 4.51659 6.25 6.58325C6.25 8.64992 7.93333 10.3333 10 10.3333C12.0667 10.3333 13.75 8.64992 13.75 6.58325C13.75 4.51659 12.0667 2.83325 10 2.83325Z" fill="black" fill-opacity="0.6"/>
</svg>
