<svg width="24" height="24" viewBox="0 0 24 24" fill="none" xmlns="http://www.w3.org/2000/svg">
<path fill-rule="evenodd" clip-rule="evenodd" d="M12.8955 2.55491C12.7265 2.21496 12.3796 2 12 2C11.6204 2 11.2735 2.21496 11.1045 2.55491L8.55675 7.68081L2.85635 8.50827C2.47894 8.56305 2.16555 8.82772 2.04837 9.19064C1.9312 9.55355 2.03064 9.95152 2.30475 10.2167L6.42457 14.2017L5.45259 19.8298C5.38786 20.2046 5.54136 20.5837 5.84865 20.8079C6.15593 21.032 6.56378 21.0625 6.90093 20.8864L12 18.2233L17.0991 20.8864C17.4362 21.0625 17.8441 21.032 18.1514 20.8079C18.4586 20.5837 18.6121 20.2046 18.5474 19.8298L17.5754 14.2017L21.6953 10.2167C21.9694 9.95152 22.0688 9.55355 21.9516 9.19064C21.8344 8.82772 21.5211 8.56305 21.1437 8.50827L15.4432 7.68081L12.8955 2.55491Z" fill="black"/>
</svg>
