<svg
  xmlns="http://www.w3.org/2000/svg"
  width="16"
  height="17"
  viewBox="0 0 16 17"
  fill="none"
>
  <path
    d="M7.33333 8.50033C8.80667 8.50033 10 7.30699 10 5.83366C10 4.36033 8.80667 3.16699 7.33333 3.16699C5.86 3.16699 4.66667 4.36033 4.66667 5.83366C4.66667 7.30699 5.86 8.50033 7.33333 8.50033ZM7.33333 4.50033C8.06667 4.50033 8.66667 5.10033 8.66667 5.83366C8.66667 6.56699 8.06667 7.16699 7.33333 7.16699C6.6 7.16699 6 6.56699 6 5.83366C6 5.10033 6.6 4.50033 7.33333 4.50033ZM3.33333 12.5003C3.46667 12.0803 5.04667 11.3803 6.64 11.207L8 9.87366C7.74 9.84699 7.54667 9.83366 7.33333 9.83366C5.55333 9.83366 2 10.727 2 12.5003V13.8337H8L6.66667 12.5003H3.33333ZM13.7333 8.83366L10.3133 12.2803L8.93333 10.8937L8 11.8337L10.3133 14.167L14.6667 9.77366L13.7333 8.83366Z"
    fill="black"
    fill-opacity="0.6"
  />
</svg>
