   <svg
          width="16"
          height="17"
          viewBox="0 0 16 17"
          fill="none"
          xmlns="http://www.w3.org/2000/svg"
        >
          <path
            d="M5.99998 9.66634C4.43998 9.66634 1.33331 10.4463 1.33331 11.9997V13.1663H10.6666V11.9997C10.6666 10.4463 7.55998 9.66634 5.99998 9.66634ZM2.89331 11.833C3.45331 11.4463 4.80665 10.9997 5.99998 10.9997C7.19331 10.9997 8.54665 11.4463 9.10665 11.833H2.89331ZM5.99998 8.49967C7.28665 8.49967 8.33331 7.45301 8.33331 6.16634C8.33331 4.87967 7.28665 3.83301 5.99998 3.83301C4.71331 3.83301 3.66665 4.87967 3.66665 6.16634C3.66665 7.45301 4.71331 8.49967 5.99998 8.49967ZM5.99998 5.16634C6.55331 5.16634 6.99998 5.61301 6.99998 6.16634C6.99998 6.71967 6.55331 7.16634 5.99998 7.16634C5.44665 7.16634 4.99998 6.71967 4.99998 6.16634C4.99998 5.61301 5.44665 5.16634 5.99998 5.16634ZM10.6933 9.70634C11.4666 10.2663 12 11.013 12 11.9997V13.1663H14.6666V11.9997C14.6666 10.653 12.3333 9.88634 10.6933 9.70634ZM9.99998 8.49967C11.2866 8.49967 12.3333 7.45301 12.3333 6.16634C12.3333 4.87967 11.2866 3.83301 9.99998 3.83301C9.63998 3.83301 9.30665 3.91967 8.99998 4.06634C9.41998 4.65967 9.66665 5.38634 9.66665 6.16634C9.66665 6.94634 9.41998 7.67301 8.99998 8.26634C9.30665 8.41301 9.63998 8.49967 9.99998 8.49967Z"
            fill="black"
            fill-opacity="0.6"
          />
        </svg>
