<?xml version="1.0" standalone="no"?>
<!DOCTYPE svg PUBLIC "-//W3C//DTD SVG 20010904//EN"
 "http://www.w3.org/TR/2001/REC-SVG-20010904/DTD/svg10.dtd">
<svg version="1.0" xmlns="http://www.w3.org/2000/svg"
 width="18px" height="18px" viewBox="0 0 512.000000 512.000000"
 preserveAspectRatio="xMidYMid meet">

<g transform="translate(0.000000,512.000000) scale(0.100000,-0.100000)"
fill="black" opacity="0.6" stroke="none">
<path d="M2970 4945 c-454 -64 -864 -376 -1044 -795 -184 -427 -143 -901 111
-1285 88 -133 245 -290 378 -378 257 -169 570 -248 868 -219 323 32 600 163
828 391 456 456 527 1158 172 1696 -88 133 -245 290 -378 378 -278 183 -607
258 -935 212z m333 -296 c415 -62 750 -354 865 -754 160 -552 -165 -1132 -723
-1293 -552 -160 -1132 165 -1293 723 -190 657 309 1325 996 1334 46 1 116 -4
155 -10z"/>
<path d="M3079 4627 c-54 -36 -69 -77 -69 -192 l0 -100 -65 -34 c-160 -82
-257 -277 -227 -455 34 -205 186 -353 390 -378 106 -14 156 -38 182 -87 25
-51 25 -91 0 -141 -23 -45 -80 -80 -131 -80 -43 0 -99 34 -131 79 -49 68 -118
87 -195 52 -47 -22 -83 -79 -83 -131 0 -73 108 -203 207 -249 l51 -24 4 -108
c3 -116 12 -139 72 -183 38 -29 114 -29 152 0 60 44 69 67 72 183 l4 107 64
33 c159 82 256 277 226 455 -34 205 -186 353 -390 378 -106 14 -156 38 -182
87 -25 51 -25 91 0 141 23 45 80 80 131 80 43 0 99 -34 131 -79 49 -68 118
-87 195 -52 47 22 83 79 83 131 0 73 -108 203 -208 249 l-52 24 0 101 c0 76
-4 110 -18 136 -25 50 -75 80 -132 80 -32 0 -58 -7 -81 -23z"/>
<path d="M1655 2309 c-132 -19 -295 -80 -409 -153 -32 -21 -100 -74 -152 -117
l-93 -79 -441 0 c-422 0 -442 -1 -480 -20 -26 -13 -47 -34 -60 -60 -19 -38
-20 -58 -20 -670 0 -612 1 -632 20 -670 13 -26 34 -47 60 -60 38 -19 58 -20
500 -20 l461 0 102 -39 c56 -22 175 -69 264 -105 159 -65 315 -112 463 -138
59 -10 270 -13 965 -13 1005 0 939 -5 1113 80 150 74 202 132 674 755 227 300
427 572 445 605 43 81 60 175 46 266 -52 330 -417 493 -695 309 -25 -17 -152
-143 -283 -280 -130 -138 -240 -250 -245 -250 -4 0 -11 12 -15 27 -9 38 -70
126 -115 167 -50 45 -140 90 -208 105 -35 7 -205 11 -493 11 l-440 0 -93 79
c-52 43 -120 96 -152 117 -205 131 -474 188 -719 153z m303 -305 c152 -31 252
-86 422 -234 52 -46 109 -89 127 -96 26 -11 129 -14 508 -14 457 0 477 -1 515
-20 45 -23 80 -80 80 -130 0 -45 -35 -107 -73 -127 -29 -16 -82 -18 -614 -23
-568 -5 -582 -5 -609 -26 -50 -37 -66 -68 -66 -124 0 -56 16 -87 66 -124 27
-21 37 -21 684 -21 l657 0 56 23 c31 12 77 36 102 53 26 17 204 198 397 402
193 205 368 382 388 394 71 43 164 17 202 -57 24 -46 25 -78 6 -124 -16 -38
-818 -1100 -879 -1163 -51 -53 -154 -108 -232 -123 -43 -8 -297 -10 -910 -8
-820 4 -853 5 -940 25 -113 26 -248 73 -440 153 -82 34 -188 75 -234 91 l-85
29 -393 0 -393 0 0 450 0 450 390 0 c307 0 398 3 423 14 18 7 75 50 127 96
116 101 218 169 296 198 138 52 285 64 422 36z"/>
</g>
</svg>
