<svg xmlns="http://www.w3.org/2000/svg" version="1.0" width="18px" height="18px" viewBox="0 0 512.000000 512.000000"
  preserveAspectRatio="xMidYMid meet">

  <g transform="translate(0.000000,512.000000) scale(0.100000,-0.100000)" fill="black" fill-opacity="0.6" stroke="none">
    <path
      d="M1280 5027 c-49 -16 -133 -102 -148 -153 -17 -59 -17 -1849 0 -1908 16 -55 99 -138 154 -154 24 -7 100 -12 178 -12 l136 0 0 80 0 80 -135 0 c-131 0 -137 1 -160 25 l-25 24 0 911 0 911 25 24 24 25 1791 0 1791 0 24 -25 25 -24 0 -911 0 -911 -25 -24 -24 -25 -709 0 c-551 0 -712 -3 -724 -12 -9 -7 -91 -103 -183 -213 -91 -110 -170 -200 -175 -200 -5 0 -84 90 -175 200 -92 110 -174 206 -183 213 -11 8 -58 12 -149 12 l-133 0 0 -80 0 -80 103 0 102 0 195 -236 c117 -141 204 -237 218 -240 12 -4 32 -4 45 0 13 3 100 99 217 240 l195 236 681 0 c776 0 742 -3 817 80 24 26 49 66 55 88 17 57 17 1847 0 1904 -6 22 -31 62 -55 88 -78 87 96 80 -1937 79 -1283 -1 -1811 -4 -1836 -12z" />
    <path
      d="M1963 4388 c-12 -6 -54 -60 -94 -119 l-72 -109 -114 0 c-108 0 -115 -1 -138 -25 -40 -40 -33 -69 52 -195 l76 -114 -37 -151 c-20 -82 -36 -158 -36 -168 0 -27 45 -67 75 -67 14 0 93 34 175 75 l150 75 150 -75 c82 -41 161 -75 175 -75 30 0 75 40 75 67 0 10 -16 86 -36 168 l-37 151 76 114 c85 126 92 155 52 195 -23 24 -30 25 -138 25 l-114 0 -72 109 c-83 125 -112 146 -168 119z m91 -294 c27 -41 57 -79 67 -84 10 -6 43 -10 74 -10 l55 0 -45 -67 c-25 -37 -45 -77 -45 -88 0 -11 9 -54 20 -95 11 -41 20 -76 20 -78 0 -1 -40 18 -90 43 -49 25 -99 45 -110 45 -11 0 -61 -20 -110 -45 -50 -25 -90 -44 -90 -43 0 2 9 37 20 78 11 41 20 84 20 95 0 11 -20 51 -45 88 l-45 67 55 0 c31 0 64 4 74 10 10 5 40 43 67 84 27 42 51 76 54 76 3 0 27 -34 54 -76z" />
    <path
      d="M3083 4388 c-12 -6 -54 -60 -94 -119 l-72 -109 -114 0 c-108 0 -115 -1 -138 -25 -40 -40 -33 -69 52 -195 l76 -114 -37 -151 c-20 -82 -36 -158 -36 -168 0 -27 45 -67 75 -67 14 0 93 34 175 75 l150 75 150 -75 c82 -41 161 -75 175 -75 30 0 75 40 75 67 0 10 -16 86 -36 168 l-37 151 76 114 c85 126 92 155 52 195 -23 24 -30 25 -138 25 l-114 0 -72 109 c-83 125 -112 146 -168 119z m91 -294 c27 -41 57 -79 67 -84 10 -6 43 -10 74 -10 l55 0 -45 -67 c-25 -37 -45 -77 -45 -88 0 -11 9 -54 20 -95 11 -41 20 -76 20 -78 0 -1 -40 18 -90 43 -49 25 -99 45 -110 45 -11 0 -61 -20 -110 -45 -50 -25 -90 -44 -90 -43 0 2 9 37 20 78 11 41 20 84 20 95 0 11 -20 51 -45 88 l-45 67 55 0 c31 0 64 4 74 10 10 5 40 43 67 84 27 42 51 76 54 76 3 0 27 -34 54 -76z" />
    <path
      d="M4203 4388 c-12 -6 -54 -60 -94 -119 l-72 -109 -114 0 c-108 0 -115 -1 -138 -25 -40 -40 -33 -69 52 -195 l76 -114 -37 -151 c-20 -82 -36 -158 -36 -168 0 -27 45 -67 75 -67 14 0 93 34 175 75 l150 75 150 -75 c82 -41 161 -75 175 -75 30 0 75 40 75 67 0 10 -16 86 -36 168 l-37 151 76 114 c85 126 92 155 52 195 -23 24 -30 25 -138 25 l-114 0 -72 109 c-83 125 -112 146 -168 119z m91 -294 c27 -41 57 -79 67 -84 10 -6 43 -10 74 -10 l55 0 -45 -67 c-25 -37 -45 -77 -45 -88 0 -11 9 -54 20 -95 11 -41 20 -76 20 -78 0 -1 -40 18 -90 43 -49 25 -99 45 -110 45 -11 0 -61 -20 -110 -45 -50 -25 -90 -44 -90 -43 0 2 9 37 20 78 11 41 20 84 20 95 0 11 -20 51 -45 88 l-45 67 55 0 c31 0 64 4 74 10 10 5 40 43 67 84 27 42 51 76 54 76 3 0 27 -34 54 -76z" />
    <path
      d="M1710 3182 l-25 -20 -5 -314 -5 -313 -28 -60 c-41 -87 -67 -116 -196 -220 l-118 -95 -197 0 c-161 0 -196 2 -196 14 0 8 -20 36 -45 64 -71 78 -89 82 -413 82 -186 0 -288 -4 -316 -12 -55 -16 -138 -99 -154 -154 -17 -59 -17 -1849 0 -1908 16 -55 99 -138 154 -154 28 -8 130 -12 316 -12 324 0 342 4 413 82 25 28 45 56 45 64 0 11 23 14 112 14 l111 0 51 -39 c69 -53 143 -88 221 -106 56 -13 181 -15 878 -13 l812 3 51 27 c76 40 107 70 145 140 31 58 34 70 33 148 0 68 -4 93 -22 127 -12 23 -22 44 -22 47 0 2 24 18 54 35 57 32 89 67 127 141 19 37 23 61 24 130 0 77 -3 90 -32 144 l-33 59 44 41 c24 23 56 66 72 96 24 48 28 66 28 140 0 74 -4 92 -28 140 -16 30 -48 73 -72 96 l-44 41 33 59 c29 53 32 67 32 144 0 78 -3 91 -34 148 -37 69 -79 109 -151 144 -44 23 -51 23 -487 26 l-443 3 0 300 c0 295 0 302 -25 376 -75 221 -256 341 -545 359 -86 6 -97 5 -120 -14z m252 -168 c114 -27 199 -89 246 -178 l27 -51 3 -312 3 -313 -80 0 -81 0 0 -80 0 -80 589 -2 c578 -3 590 -3 617 -24 53 -39 69 -71 69 -134 0 -63 -16 -95 -69 -134 -26 -20 -41 -21 -417 -24 l-389 -3 0 -79 0 -79 429 -3 c416 -3 430 -4 457 -24 53 -39 69 -71 69 -134 0 -63 -16 -95 -69 -134 -27 -20 -41 -21 -457 -24 l-429 -3 0 -79 0 -79 389 -3 c376 -3 391 -4 417 -24 53 -39 69 -71 69 -134 0 -63 -16 -95 -69 -134 -26 -20 -41 -21 -417 -24 l-389 -3 0 -79 0 -79 309 -3 c295 -3 311 -4 337 -24 53 -39 69 -71 69 -134 0 -63 -16 -95 -69 -134 -27 -21 -37 -21 -819 -24 -540 -2 -806 1 -835 8 -69 17 -126 48 -187 101 l-56 49 -135 0 -134 0 0 800 0 800 214 0 213 0 149 119 c181 145 224 198 277 340 18 50 21 84 25 318 l4 262 31 -5 c18 -3 58 -12 89 -20z m-1187 -879 l25 -24 0 -911 0 -911 -25 -24 -24 -25 -271 0 -271 0 -24 25 -25 24 0 911 0 911 25 24 24 25 271 0 271 0 24 -25z" />
    <path d="M400 1920 l0 -80 80 0 80 0 0 80 0 80 -80 0 -80 0 0 -80z" />
    <path
      d="M3880 2395 l-175 -175 58 -57 57 -58 175 175 c96 96 175 180 175 185 0 13 -92 105 -105 105 -6 0 -89 -79 -185 -175z" />
    <path d="M3760 1920 l0 -80 320 0 320 0 0 80 0 80 -320 0 -320 0 0 -80z" />
    <path
      d="M3757 1642 c-26 -26 -47 -52 -47 -57 0 -6 79 -89 175 -185 l175 -175 57 58 58 57 -175 175 c-96 96 -180 175 -185 175 -6 0 -32 -22 -58 -48z" />
  </g>
</svg>
