<svg version="1.0" xmlns="http://www.w3.org/2000/svg"
 width="18px" height="18px" viewBox="0 0 512.000000 512.000000"
 preserveAspectRatio="xMidYMid meet">

<g transform="translate(0.000000,512.000000) scale(0.100000,-0.100000)"
fill="black" fill-opacity="0.6" stroke="none">
<path d="M1089 4827 c-56 -37 -79 -95 -79 -204 l0 -93 -118 0 c-202 0 -318
-44 -443 -169 -86 -86 -140 -179 -164 -286 -23 -98 -23 -3051 0 -3141 52 -203
200 -361 405 -430 52 -18 99 -19 832 -19 769 0 777 0 804 21 53 39 69 71 69
134 0 63 -16 95 -69 134 -27 21 -39 21 -784 26 -845 6 -793 1 -869 77 -21 21
-48 57 -58 78 -19 39 -20 69 -23 1063 l-2 1022 1969 0 1970 0 3 -262 c3 -256
4 -264 27 -301 31 -51 91 -81 149 -74 50 5 87 29 120 77 22 33 22 37 22 374 1
918 -1 1161 -11 1209 -6 29 -29 90 -50 136 -31 67 -54 98 -116 160 -127 127
-243 171 -444 171 l-117 0 -4 103 c-4 116 -20 156 -78 194 -63 43 -167 23
-213 -41 -19 -26 -23 -48 -27 -141 l-5 -110 -532 -3 -531 -2 -4 109 c-2 92 -6
114 -24 138 -73 98 -195 98 -268 0 -18 -24 -22 -46 -24 -138 l-4 -109 -531 2
-532 3 -5 110 c-4 93 -8 115 -27 141 -46 64 -149 84 -214 41z m-79 -699 c0
-110 12 -149 59 -191 54 -49 106 -56 169 -25 76 37 92 71 92 194 l0 104 535 0
535 0 0 -95 c0 -76 4 -104 20 -134 57 -113 223 -113 280 0 16 30 20 58 20 134
l0 95 535 0 535 0 0 -104 c0 -123 16 -157 92 -194 63 -31 115 -24 169 25 47
42 59 81 59 191 l0 82 108 0 c128 0 186 -22 245 -90 64 -75 67 -96 67 -447 l0
-313 -1970 0 -1970 0 0 313 c0 351 3 372 67 447 59 68 117 90 246 90 l107 0 0
-82z"/>
<path d="M3472 2595 c-163 -30 -363 -117 -492 -214 -84 -63 -214 -199 -269
-280 -64 -94 -137 -253 -167 -366 -35 -132 -44 -355 -21 -490 41 -233 144
-438 306 -608 228 -240 523 -367 852 -367 192 0 355 38 524 123 276 138 491
387 589 682 75 229 75 504 0 730 -35 105 -112 254 -173 335 -62 82 -198 214
-276 267 -134 90 -308 161 -463 188 -103 18 -310 18 -410 0z m378 -319 c167
-35 308 -112 431 -235 167 -168 249 -364 249 -601 0 -237 -82 -433 -249 -601
-167 -166 -364 -248 -597 -249 -180 0 -329 44 -474 141 -189 127 -319 318
-366 539 -18 84 -18 256 0 340 70 331 329 592 661 665 80 18 264 18 345 1z"/>
<path d="M3615 2066 c-37 -17 -70 -52 -84 -89 -17 -45 -14 -499 3 -542 19 -45
301 -382 335 -399 69 -36 134 -27 188 26 42 40 58 94 43 147 -12 44 -17 52
-155 216 l-100 120 -5 217 c-5 236 -7 242 -72 291 -34 25 -113 32 -153 13z"/>
</g>
</svg>
