<?xml version="1.0" standalone="no"?>
<!DOCTYPE svg PUBLIC "-//W3C//DTD SVG 20010904//EN"
 "http://www.w3.org/TR/2001/REC-SVG-20010904/DTD/svg10.dtd">
<svg version="1.0" xmlns="http://www.w3.org/2000/svg"
 width="20px" height="20px" viewBox="0 0 512.000000 512.000000"
 preserveAspectRatio="xMidYMid meet">

<g transform="translate(0.000000,512.000000) scale(0.100000,-0.100000)"
fill="black" fill-opacity="0.6" stroke="none">
<path d="M2061 5103 c-18 -15 -35 -74 -91 -307 -38 -159 -70 -289 -72 -290 -2
-1 -37 -15 -78 -31 -41 -15 -96 -38 -121 -51 l-46 -23 -252 155 c-161 98 -262
154 -279 154 -22 0 -89 -62 -369 -342 -281 -281 -343 -348 -343 -370 0 -17 56
-118 155 -278 l154 -252 -23 -47 c-13 -25 -36 -80 -51 -121 -16 -41 -30 -76
-31 -78 -1 -2 -132 -35 -291 -73 -228 -55 -292 -73 -305 -90 -17 -20 -18 -59
-18 -499 0 -440 1 -479 18 -499 13 -17 77 -35 305 -90 159 -38 290 -71 291
-73 1 -2 15 -37 31 -78 15 -41 38 -96 51 -121 l23 -46 -155 -253 c-93 -154
-154 -264 -154 -279 0 -21 70 -96 343 -369 283 -283 347 -342 370 -342 17 0
115 54 279 154 l252 154 45 -22 c25 -13 80 -36 121 -51 41 -16 76 -30 78 -31
2 -1 35 -132 73 -291 55 -228 73 -292 90 -305 20 -17 59 -18 499 -18 440 0
479 1 499 18 16 13 35 75 86 292 36 151 68 282 70 290 3 8 29 24 57 34 29 10
85 33 125 51 l72 33 251 -154 c159 -98 261 -154 278 -154 22 0 90 63 369 342
280 280 343 348 343 370 0 17 -56 118 -154 278 l-154 251 33 72 c18 40 41 96
51 125 13 36 25 54 39 57 11 3 142 34 290 70 212 51 274 70 288 86 16 20 17
59 17 499 0 440 -1 479 -17 499 -14 17 -79 36 -307 91 -159 38 -290 71 -291
72 0 2 -14 37 -30 78 -15 41 -38 96 -51 121 l-23 46 155 253 c93 153 154 264
154 279 0 39 -673 711 -712 711 -17 0 -117 -55 -278 -154 l-251 -154 -72 33
c-40 18 -96 41 -125 51 -28 10 -54 26 -57 34 -2 8 -34 139 -70 290 -51 217
-70 279 -86 293 -20 16 -59 17 -499 17 -440 0 -479 -1 -499 -17z m969 -405
c37 -152 72 -283 78 -291 7 -8 47 -27 90 -42 42 -15 121 -48 176 -72 118 -54
77 -67 384 121 122 75 225 136 229 136 11 0 563 -553 563 -563 0 -5 -63 -111
-140 -236 -76 -126 -145 -240 -151 -255 -11 -23 -7 -37 33 -123 25 -54 58
-133 73 -175 15 -43 34 -83 42 -90 8 -6 139 -42 291 -78 l277 -67 0 -403 0
-404 -277 -66 c-152 -37 -284 -72 -292 -79 -8 -7 -23 -36 -32 -64 -9 -29 -41
-108 -71 -176 -49 -110 -54 -127 -43 -150 6 -14 74 -128 151 -253 76 -124 139
-230 139 -235 0 -10 -552 -563 -562 -563 -5 0 -110 63 -235 139 -126 77 -240
145 -254 151 -24 11 -38 7 -125 -33 -55 -25 -134 -57 -176 -72 -43 -15 -83
-34 -90 -42 -6 -8 -42 -139 -78 -291 l-67 -277 -403 0 -403 0 -64 270 c-36
149 -71 280 -78 291 -9 14 -47 34 -101 53 -48 18 -127 50 -176 73 -79 37 -91
40 -116 29 -15 -7 -129 -75 -254 -152 -124 -76 -230 -139 -235 -139 -11 0
-563 552 -563 563 0 5 63 111 139 235 77 125 145 239 152 254 11 25 8 37 -33
125 -25 54 -58 133 -73 176 -17 46 -37 84 -49 92 -12 7 -142 42 -291 78 l-270
64 0 403 0 402 277 67 c152 37 283 73 291 79 8 7 27 47 42 90 15 42 48 121 73
175 41 88 44 100 33 125 -7 15 -75 129 -152 254 -76 125 -139 230 -139 235 0
11 553 563 564 563 4 0 110 -63 235 -139 125 -77 239 -145 253 -151 22 -10 40
-5 149 43 68 30 148 62 177 72 29 9 59 26 67 38 7 12 41 139 75 282 34 143 63
266 65 273 4 10 90 12 407 10 l402 -3 66 -277z"/>
<path d="M2351 4138 c-112 -14 -294 -64 -406 -111 -396 -168 -720 -504 -874
-907 -89 -230 -120 -516 -86 -773 46 -351 196 -649 454 -908 294 -293 644
-449 1051 -466 466 -19 887 149 1211 483 150 156 245 298 325 488 221 523 143
1130 -205 1584 -67 87 -217 236 -306 304 -215 162 -493 274 -760 307 -105 13
-298 12 -404 -1z m504 -157 c576 -128 999 -552 1128 -1131 31 -138 31 -442 0
-580 -131 -586 -560 -1009 -1153 -1136 -133 -29 -421 -26 -559 4 -290 65 -533
197 -735 398 -201 202 -333 445 -398 735 -19 88 -23 132 -23 289 0 157 4 201
23 289 32 141 73 256 137 379 201 386 565 663 991 751 138 29 149 30 334 26
118 -3 191 -9 255 -24z"/>
<path d="M1883 3158 c-567 -567 -653 -657 -653 -682 0 -24 22 -52 128 -158
104 -103 134 -128 157 -128 22 0 50 21 131 102 l104 102 0 -436 c0 -425 0
-436 21 -462 l20 -26 769 0 769 0 20 26 c21 26 21 37 21 462 l0 436 104 -102
c82 -81 109 -102 132 -102 23 0 52 24 156 128 107 106 128 133 128 158 0 25
-26 55 -165 194 l-165 165 0 321 c0 310 -1 322 -21 348 l-20 26 -185 0 c-231
0 -224 4 -224 -135 0 -52 -3 -95 -7 -95 -4 0 -123 115 -263 255 -194 194 -262
255 -280 255 -19 0 -171 -146 -677 -652z m978 186 c280 -279 299 -296 326
-290 54 14 58 24 61 186 l3 150 85 0 84 0 0 -302 0 -303 152 -152 153 -153
-60 -60 -60 -60 -505 505 c-472 472 -508 505 -540 505 -32 0 -68 -33 -540
-505 l-505 -505 -60 60 -60 60 580 580 c319 319 582 580 585 580 2 0 138 -133
301 -296z m36 -476 l333 -333 0 -462 0 -463 -180 0 -180 0 0 299 0 300 -26 20
c-25 20 -39 21 -284 21 -245 0 -259 -1 -284 -21 l-26 -20 0 -300 0 -299 -180
0 -180 0 0 462 0 463 332 332 c183 183 335 333 338 333 3 0 155 -150 337 -332z
m-167 -1008 l0 -250 -170 0 -170 0 0 250 0 250 170 0 170 0 0 -250z"/>
</g>
</svg>
